<svg width="84" height="80" viewBox="0 0 84 80" fill="none" xmlns="http://www.w3.org/2000/svg">
<path d="M40.3931 9.04636C41.1015 7.65121 43.1485 7.65121 43.8569 9.04636L53.0279 27.1068C53.3093 27.6608 53.8531 28.0448 54.4821 28.1336L74.9891 31.0298C76.5733 31.2535 77.2058 33.1456 76.0595 34.2315L61.2205 48.2896C60.7653 48.7208 60.5576 49.3422 60.6651 49.9511L64.1681 69.8014C64.4387 71.3348 62.7827 72.5042 61.3657 71.7802L43.0238 62.4082C42.4611 62.1207 41.7889 62.1207 41.2263 62.4082L22.8843 71.7802C21.4674 72.5042 19.8113 71.3348 20.0819 69.8014L23.585 49.9511C23.6924 49.3422 23.4847 48.7208 23.0295 48.2896L8.19051 34.2315C7.04421 33.1456 7.67675 31.2535 9.2609 31.0298L29.7679 28.1336C30.3969 28.0448 30.9408 27.6608 31.2221 27.1068L40.3931 9.04636Z" fill="#F94A77" stroke="#F94A77" stroke-width="2" stroke-linejoin="round"/>
</svg>
