<svg width="84" height="80" viewBox="0 0 84 80" fill="none" xmlns="http://www.w3.org/2000/svg">
<path d="M40.1431 9.04636C40.8515 7.65121 42.8985 7.65121 43.6069 9.04636L52.7779 27.1068C53.0593 27.6608 53.6031 28.0448 54.2321 28.1336L74.7391 31.0298C76.3233 31.2535 76.9558 33.1456 75.8095 34.2315L60.9705 48.2896C60.5153 48.7208 60.3076 49.3422 60.4151 49.9511L63.9181 69.8014C64.1887 71.3348 62.5327 72.5042 61.1157 71.7802L42.7738 62.4082C42.2111 62.1207 41.5389 62.1207 40.9763 62.4082L22.6343 71.7802C21.2174 72.5042 19.5613 71.3348 19.8319 69.8014L23.335 49.9511C23.4424 49.3422 23.2347 48.7208 22.7795 48.2896L7.94051 34.2315C6.79421 33.1456 7.42675 31.2535 9.0109 31.0298L29.5179 28.1336C30.1469 28.0448 30.6908 27.6608 30.9721 27.1068L40.1431 9.04636Z" fill="#F94A77" stroke="#F94A77" stroke-width="2" stroke-linejoin="round"/>
</svg>
