<svg width="83" height="80" viewBox="0 0 83 80" fill="none" xmlns="http://www.w3.org/2000/svg">
<path d="M39.7681 9.04636C40.4765 7.65121 42.5235 7.65121 43.2319 9.04636L52.4029 27.1068C52.6843 27.6608 53.2281 28.0448 53.8571 28.1336L74.3641 31.0298C75.9483 31.2535 76.5808 33.1456 75.4345 34.2315L60.5955 48.2896C60.1403 48.7208 59.9326 49.3422 60.0401 49.9511L63.5431 69.8014C63.8137 71.3348 62.1576 72.5042 60.7407 71.7802L42.3987 62.4082C41.8361 62.1207 41.1639 62.1207 40.6013 62.4082L22.2593 71.7802C20.8424 72.5042 19.1863 71.3348 19.4569 69.8014L22.96 49.9511C23.0674 49.3422 22.8597 48.7208 22.4045 48.2896L7.56551 34.2315C6.41921 33.1456 7.05175 31.2535 8.6359 31.0298L29.1429 28.1336C29.7719 28.0448 30.3157 27.6608 30.5971 27.1068L39.7681 9.04636Z" fill="#F94A77" stroke="#F94A77" stroke-width="2" stroke-linejoin="round"/>
</svg>
