<svg width="83" height="80" viewBox="0 0 83 80" fill="none" xmlns="http://www.w3.org/2000/svg">
<path d="M39.4556 9.04636C40.164 7.65121 42.211 7.65121 42.9194 9.04636L52.0904 27.1068C52.3718 27.6608 52.9156 28.0448 53.5446 28.1336L74.0516 31.0298C75.6358 31.2535 76.2683 33.1456 75.122 34.2315L60.283 48.2896C59.8278 48.7208 59.6201 49.3422 59.7276 49.9511L63.2306 69.8014C63.5012 71.3348 61.8452 72.5042 60.4282 71.7802L42.0863 62.4082C41.5236 62.1207 40.8514 62.1207 40.2888 62.4082L21.9468 71.7802C20.5299 72.5042 18.8738 71.3348 19.1444 69.8014L22.6475 49.9511C22.7549 49.3422 22.5472 48.7208 22.092 48.2896L7.25301 34.2315C6.10671 33.1456 6.73925 31.2535 8.3234 31.0298L28.8304 28.1336C29.4594 28.0448 30.0033 27.6608 30.2846 27.1068L39.4556 9.04636Z" fill="#F94A77" stroke="#F94A77" stroke-width="2" stroke-linejoin="round"/>
</svg>
