<svg width="83" height="80" viewBox="0 0 83 80" fill="none" xmlns="http://www.w3.org/2000/svg">
<path d="M40.0806 9.04636C40.789 7.65121 42.836 7.65121 43.5444 9.04636L52.7154 27.1068C52.9968 27.6608 53.5406 28.0448 54.1696 28.1336L74.6766 31.0298C76.2608 31.2535 76.8933 33.1456 75.747 34.2315L60.908 48.2896C60.4528 48.7208 60.2451 49.3422 60.3526 49.9511L63.8556 69.8014C64.1262 71.3348 62.4702 72.5042 61.0532 71.7802L42.7113 62.4082C42.1486 62.1207 41.4764 62.1207 40.9138 62.4082L22.5718 71.7802C21.1549 72.5042 19.4988 71.3348 19.7694 69.8014L23.2725 49.9511C23.3799 49.3422 23.1722 48.7208 22.717 48.2896L7.87801 34.2315C6.73171 33.1456 7.36425 31.2535 8.9484 31.0298L29.4554 28.1336C30.0844 28.0448 30.6283 27.6608 30.9096 27.1068L40.0806 9.04636Z" fill="#F94A77" stroke="#F94A77" stroke-width="2" stroke-linejoin="round"/>
</svg>
